PathFileType	4	(X/Y/Z)	pose_F01_0-96.trc
DataRate	CameraRate	NumFrames	NumMarkers	Units	OrigDataRate	OrigDataStartFrame	OrigNumFrames
30	30	5	21	m	30	24	96
Frame#	Time	CHip			RHip			RKnee			RAnkle			RBigToe			RSmallToe			RHeel			LHip			LKnee			LAnkle			LBigToe			LSmallToe			LHeel			Neck			Nose			RShoulder			RElbow			RWrist			LShoulder			LElbow			LWrist			
		X1	Y1	Z1	X2	Y2	Z2	X3	Y3	Z3	X4	Y4	Z4	X5	Y5	Z5	X6	Y6	Z6	X7	Y7	Z7	X8	Y8	Z8	X9	Y9	Z9	X10	Y10	Z10	X11	Y11	Z11	X12	Y12	Z12	X13	Y13	Z13	X14	Y14	Z14	X15	Y15	Z15	X16	Y16	Z16	X17	Y17	Z17	X18	Y18	Z18	X19	Y19	Z19	X20	Y20	Z20	X21	Y21	Z21	
24	0.8	-0.17630346082632412	1.8717339303324085	-0.5335326049981198	-0.1922104609042507	1.8698003827736067	-0.4673962720144617	-0.17938822725252543	1.7266513611875098	-0.4583983311903271	-0.18843835188922445	1.67406248833791	-0.43714442783672414							-0.16339081655689036	1.563512851446416	-0.44834747786038387	-0.1616576052708265	1.8733081532683011	-0.5887761898933723	-0.15532388610448558	1.7232196648481757	-0.5471506827374653	-0.15797120438675769	1.5806253662075087	-0.5186686339207168	-0.18763671526777234	1.5443233510667496	-0.5451748498792444	-0.1746292084800351	1.553689459988536	-0.5630141508723332	-0.15014777810171198	1.574177317522257	-0.5058330992620659	-0.16427616029901534	2.0380678428739496	-0.5395394200774837	-0.19915924679340954	2.1019164559423955	-0.5636130164290954	-0.18233859767494645	2.034101406595324	-0.455194323810984	-0.19303890165543158	1.9478372820777767	-0.42545650359072196	-0.20456697563934412	1.8710941741617744	-0.4095178854595899	-0.1426850366676643	2.0413248954057512	-0.6283911117660047	-0.13417139710608358	1.957510547681922	-0.6402915759003065	-0.13838167641907495	1.8756025581857803	-0.6476278390973523
25	0.8333333333333334	-0.17623302780980227	1.8716099060795586	-0.5337124695409782	-0.19216287554023026	1.8699087179401257	-0.47621336807010084	-0.17634618505332533	1.722551356689752	-0.4569371487998679	-0.18843835188922445	1.67406248833791	-0.43714442783672414							-0.16339081655689036	1.563512851446416	-0.44834747786038387	-0.161339554040632	1.8729154301865067	-0.5888091478671211	-0.1535220918511978	1.7223979298090537	-0.5491970837431895	-0.15511746199085696	1.5811529399492004	-0.5175258422170891	-0.18639726341107238	1.543288719821656	-0.5418122056049828	-0.17345963699665154	1.552408347237717	-0.5599777351187375	-0.15055923504912375	1.5761403070101254	-0.5056854346434659	-0.16427843559700048	2.0381173121228726	-0.5395806040838317	-0.19916018734346388	2.101970715449379	-0.5636679404005039	-0.1823570707458135	2.035378456372366	-0.45579354697534075	-0.19105563368563475	1.94652949518238	-0.42734402179440434	-0.20521845299547126	1.8698713562018987	-0.4124540865413791	-0.14268695417691	2.0414258388115103	-0.628379280851074	-0.13252782182489256	1.9580647060314529	-0.6338837919916274	-0.13841876992556276	1.876369866742272	-0.6475913858031739
26	0.8666666666666667	-0.1765738035143496	1.8693526394807076	-0.533299366761979	-0.19143048151044853	1.8688393908776466	-0.47271496804540436	-0.17829857082025025	1.722776257421583	-0.45477080012874804	-0.18843835188922445	1.67406248833791	-0.43714442783672414							-0.16339081655689036	1.563512851446416	-0.44834747786038387	-0.16176577538160725	1.8720623338497122	-0.5886699762129953	-0.15347826224871772	1.7220889951726452	-0.5491093689863485	-0.15821312337621712	1.5790822140598186	-0.5181171290590464	-0.18879974767979746	1.5417179071962137	-0.5389000165760669	-0.1757570509838971	1.5504769321388687	-0.5570609200866325	-0.15037434604028146	1.5723976018732595	-0.50516012860201	-0.16429388349778212	2.038063089366143	-0.5395614595321554	-0.1992133705517328	2.1019685227010183	-0.563555949085491	-0.1823649912072579	2.0341074812768003	-0.45530787105907994	-0.19101487075288479	1.947617515451465	-0.42737446707095006	-0.20380351425577312	1.871259428240389	-0.409329137637865	-0.1438695003801477	2.0412378080497047	-0.623245968229099	-0.13338337423946878	1.9581797997956134	-0.6371031173485369	-0.13844080246291746	1.8760637677987855	-0.6476785558519953
27	0.9	-0.1763910039015059	1.870371033200001	-0.533524762279071	-0.19125800395613402	1.869820887356836	-0.4729359017280529	-0.17946278599167248	1.7242245516714265	-0.4580146536467565	-0.18843835188922445	1.67406248833791	-0.43714442783672414							-0.16339081655689036	1.563512851446416	-0.44834747786038387	-0.16147627037679443	1.8716332686646553	-0.5886729980565616	-0.1533038531629267	1.7236210997316403	-0.549520942030505	-0.1569633323388553	1.5831381491562233	-0.5157181724940566	-0.18855139243775215	1.5436269456226215	-0.5396439655926056	-0.175611932282047	1.5532355788823902	-0.5575653164573785	-0.15049595712387137	1.5760857487971698	-0.5054275921565647	-0.16424596711300543	2.038158670462725	-0.5395128184689439	-0.19921347176934867	2.102014465797825	-0.5635520788123926	-0.18231302449411246	2.0341154449525782	-0.4552036841195157	-0.1929221553663141	1.946526788257511	-0.42505501413934205	-0.20612439148891937	1.8698327097561565	-0.40704774787107406	-0.1418447924453339	2.041511813702173	-0.6254026961144904	-0.1332809295916894	1.9592102705730448	-0.6370955001845612	-0.13846280567309527	1.87633650995998	-0.6478429003630264
28	0.9333333333333333	-0.17613663599984816	1.8727296822335084	-0.5337983760325866	-0.19016813776360508	1.8709908747853201	-0.46977728643160865	-0.17943056782951414	1.7239991389993126	-0.45799570019549246	-0.18843835188922445	1.67406248833791	-0.43714442783672414							-0.16339081655689036	1.563512851446416	-0.44834747786038387	-0.16134859746770536	1.8753619281120752	-0.5891782257102407	-0.15446758601468444	1.722908814269955	-0.552315884882701	-0.1582313542866913	1.5819616763026012	-0.5183332081297164	-0.18897783665095116	1.5436621882783723	-0.5475181307984652	-0.17482733950359972	1.5519849907265704	-0.5624414437114447	-0.15040109931316092	1.5752415585471602	-0.5054043290980297	-0.16432151159308359	2.0380842918681306	-0.5394938687461716	-0.20209097231825124	2.1020946444617072	-0.5645363498168844	-0.18421862529493022	2.034040724743974	-0.4530475769806203	-0.19293490629474963	1.9465169725525062	-0.42507555277525977	-0.20842851097950585	1.8711688159732878	-0.4080755910168758	-0.14467940402304258	2.0413320648008915	-0.626212698770289	-0.13201497799011194	1.9583512222248405	-0.6425911775125314	-0.1384499865359077	1.8762804153830168	-0.6479702665973216
